<svg version="1.1" id="Layer_1" xmlns="http://www.w3.org/2000/svg" xmlns:xlink="http://www.w3.org/1999/xlink" x="0px" y="0px"
	 width="100%" viewBox="0 0 496 496" enable-background="new 0 0 496 496" xml:space="preserve">
<path fill="#000000" opacity="1.000000" stroke="none" 
	d="
M236.475922,150.474060 
	C222.680801,167.172256 206.966843,181.932022 196.322968,201.185532 
	C194.440140,200.994949 194.817078,199.253586 195.221420,197.608536 
	C195.866348,194.984467 197.228943,192.737350 198.803268,190.536514 
	C212.010452,172.073471 227.569336,155.569946 242.205048,138.297943 
	C243.049927,137.300888 243.917816,136.323334 245.321121,134.708099 
	C232.989288,133.290848 221.474274,135.957703 208.970383,136.217743 
	C211.683609,132.708069 214.806534,132.667328 217.719116,132.543274 
	C227.020294,132.147125 236.327438,131.830475 245.635391,131.690475 
	C248.456848,131.648026 250.275909,130.275040 252.089844,128.473862 
	C255.574890,125.013397 259.109192,121.598038 263.808136,119.448387 
	C263.360565,124.575836 257.699188,126.126770 255.824265,131.143784 
	C262.889862,131.356171 269.404938,133.178864 275.810730,129.063339 
	C281.994446,125.090485 288.795898,122.314049 296.199951,121.330246 
	C297.539062,121.152321 298.931824,120.792534 299.801727,122.186653 
	C300.761322,123.724472 300.029144,125.203949 299.025024,126.298531 
	C297.243744,128.240311 295.229950,129.968796 293.267975,131.829605 
	C294.286926,134.074463 297.634857,132.559921 298.505432,135.376755 
	C297.215942,137.158554 295.813477,137.556503 293.607330,136.312775 
	C290.632416,134.635635 287.537292,135.044647 284.578217,136.685196 
	C276.987213,140.893661 268.920868,144.060776 260.888611,147.269730 
	C254.684494,149.748337 249.790100,153.804459 245.173599,159.004318 
	C247.523178,159.474823 249.482666,157.551056 251.393051,158.615265 
	C252.712723,160.611725 250.101807,161.571716 250.514816,163.696503 
	C258.131531,161.311295 265.178436,157.304688 272.917267,155.460327 
	C274.054352,158.862000 271.571503,159.536285 270.218506,161.079422 
	C273.081909,161.363434 275.196259,158.885254 277.990845,159.547653 
	C274.242157,166.119171 261.774078,168.840881 257.929077,164.430161 
	C253.128815,163.396072 248.488602,172.502640 243.769135,163.971970 
	C241.842575,163.902054 241.037674,165.957443 239.485825,166.782410 
	C238.359619,167.381119 237.208649,168.639038 235.959320,167.251968 
	C234.781311,165.944107 235.793365,164.725571 236.636002,163.717087 
	C238.731567,161.209045 240.912308,158.772171 243.010254,156.362534 
	C241.627731,154.326096 239.537872,156.665085 237.970779,154.570450 
	C242.409668,150.942856 248.645325,150.656998 252.891525,146.757126 
	C257.055695,142.932587 261.461639,139.371307 265.757996,135.690460 
	C258.072296,132.367218 251.755325,133.594315 246.425873,139.460144 
	C243.178055,143.034836 239.948578,146.626205 236.475922,150.474060 
M289.762146,130.440933 
	C291.335266,128.688797 294.048401,128.061737 295.404083,124.485535 
	C288.554840,125.411957 283.285614,127.829178 277.210297,131.415268 
	C282.113129,133.030731 285.699890,133.256271 289.762146,130.440933 
M266.483582,138.776230 
	C265.306000,139.751633 263.773682,140.446152 263.218964,142.915054 
	C268.997101,140.788864 274.292847,139.276489 279.535706,135.586609 
	C273.996948,133.408615 270.485931,135.744980 266.483582,138.776230 
z"/>
<path fill="#000000" opacity="1.000000" stroke="none" 
	d="
M381.974915,168.090851 
	C391.117859,182.680252 397.430420,197.930695 400.368683,214.430359 
	C396.795013,213.911667 396.688416,211.534683 396.103394,209.575867 
	C387.998932,182.441147 373.822388,158.924637 352.851776,139.965225 
	C328.762085,118.185829 300.531616,104.856903 267.977356,101.223183 
	C250.948318,99.322403 234.132874,100.255623 217.462936,104.151901 
	C216.492188,104.378784 215.497452,104.525513 214.505493,104.629143 
	C214.045044,104.677246 213.564392,104.532143 212.873444,104.447861 
	C212.299774,101.730057 213.913483,101.140991 216.028183,100.526276 
	C223.905319,98.236481 232.047653,97.190788 240.117477,96.812164 
	C296.874390,94.149193 342.619995,115.446808 377.102509,160.693863 
	C378.814819,162.940735 380.227814,165.415726 381.974915,168.090851 
z"/>
<path fill="#000000" opacity="1.000000" stroke="none" 
	d="
M284.598846,401.952576 
	C240.238724,410.891815 199.317963,403.115204 162.384964,377.841370 
	C132.348633,357.287079 112.371429,328.907379 102.350639,293.743073 
	C101.624832,291.196106 101.646980,291.189789 102.765335,288.160339 
	C105.586121,287.767914 105.458794,290.241058 105.901176,291.741333 
	C116.491608,327.656738 137.142899,356.221222 168.401978,376.890442 
	C188.285568,390.037903 210.084991,398.025726 233.890060,400.762360 
	C251.294617,402.763153 268.364014,401.444702 285.356812,397.681610 
	C286.791351,397.363953 288.256683,397.185272 289.886261,396.912079 
	C291.257172,401.910583 287.176849,400.888428 284.598846,401.952576 
z"/>
<path fill="#000000" opacity="1.000000" stroke="none" 
	d="
M200.232574,258.740112 
	C201.877991,260.082550 202.826569,261.831421 205.362091,262.074219 
	C206.318207,258.549713 205.621109,254.918991 205.819901,251.375702 
	C205.955078,248.966583 207.428589,248.286270 209.467941,248.244370 
	C211.323135,248.206238 212.959976,248.866089 212.989044,250.929382 
	C213.114349,259.823395 213.528061,268.733826 212.548935,279.174286 
	C205.839157,273.398499 200.090714,268.450195 193.225433,262.540558 
	C193.225433,267.404480 193.216766,270.849640 193.228363,274.294708 
	C193.236526,276.719513 191.809708,277.373657 189.670959,277.363708 
	C187.786194,277.354950 186.259644,276.903961 186.271790,274.703613 
	C186.320175,265.943420 185.468735,257.155151 186.914185,246.837677 
	C191.808334,251.202972 195.895096,254.848114 200.232574,258.740112 
z"/>
<path fill="#000000" opacity="1.000000" stroke="none" 
	d="
M247.688019,221.517731 
	C247.659515,212.448456 247.659515,203.827728 247.659515,194.164154 
	C255.069595,198.547958 259.513824,204.985291 266.019409,209.394821 
	C267.777527,206.447144 267.348663,203.523438 267.188995,200.609650 
	C267.051025,198.092087 266.754852,195.298645 270.502625,195.170929 
	C274.080902,195.048996 274.313660,197.475388 274.291290,200.225723 
	C274.225555,208.304550 274.267883,216.384277 274.267883,225.636292 
	C266.388458,221.276443 261.811462,214.702301 254.304794,209.835556 
	C254.304794,214.177216 254.353592,217.272522 254.284515,220.365204 
	C254.249161,221.948563 254.677658,223.992249 252.291916,224.276825 
	C250.373550,224.505661 248.105698,224.965912 247.688019,221.517731 
z"/>
<path fill="#000000" opacity="1.000000" stroke="none" 
	d="
M271.336731,253.395935 
	C270.360840,257.153259 267.950714,255.611374 265.979340,255.368927 
	C259.294983,254.546921 256.024597,256.327667 255.250504,261.261292 
	C254.168869,268.154999 259.012421,272.064728 265.919037,269.850616 
	C265.992645,268.264984 264.666443,268.579224 263.811310,268.367004 
	C261.563812,267.809204 261.765198,266.059601 261.780212,264.387817 
	C261.797577,262.452972 263.058685,261.533783 264.698883,261.812683 
	C267.619934,262.309448 271.880188,259.417572 273.193970,264.235870 
	C275.312469,272.005402 273.247284,276.018280 267.100250,277.396759 
	C259.935608,279.003448 253.101822,276.642609 249.872681,271.445190 
	C246.563904,266.119598 247.112427,258.145813 251.135071,253.093994 
	C254.749969,248.554260 262.158905,246.725693 268.519653,248.787155 
	C270.588104,249.457520 272.302643,250.339127 271.336731,253.395935 
z"/>
<path fill="#000000" opacity="1.000000" stroke="none" 
	d="
M318.477600,206.088013 
	C321.260956,206.384216 323.742188,206.575958 326.227051,206.657486 
	C328.233643,206.723297 329.274078,207.561768 329.301544,209.673264 
	C329.329224,211.803802 328.735870,213.268570 326.303040,213.288116 
	C324.974213,213.298813 323.637299,213.225143 322.318512,213.346558 
	C320.477692,213.515991 317.637665,212.729065 317.759857,215.691788 
	C317.879272,218.585251 320.725464,217.611206 322.539398,217.775101 
	C324.352631,217.938934 326.191681,217.858368 328.018250,217.823975 
	C330.423492,217.778687 331.751831,218.815033 331.869019,221.314331 
	C331.999481,224.097870 330.422638,224.543427 328.067352,224.531479 
	C323.761627,224.509644 319.455200,224.761765 315.148041,224.852432 
	C312.172791,224.915054 310.572357,223.748138 310.643555,220.423645 
	C310.796417,213.283203 310.734344,206.136826 310.667542,198.993744 
	C310.644867,196.567169 311.574432,195.132858 314.068268,195.107468 
	C318.718262,195.060089 323.369690,195.075317 328.019592,195.135773 
	C330.193634,195.164017 331.341370,196.255447 331.326630,198.563080 
	C331.312195,200.815399 330.282135,201.985611 328.063873,202.060669 
	C325.574219,202.144928 323.077667,202.080780 320.592499,202.225388 
	C318.231384,202.362778 316.541809,203.113678 318.477600,206.088013 
z"/>
<path fill="#000000" opacity="1.000000" stroke="none" 
	d="
M330.568817,273.318237 
	C325.894073,278.337341 320.619415,279.209137 314.870575,276.638428 
	C309.494202,274.234253 308.455078,269.478058 308.652618,264.125671 
	C308.800018,260.132446 308.737366,256.129181 308.680664,252.131622 
	C308.647400,249.789520 309.336151,248.266174 312.000854,248.214905 
	C314.693359,248.163071 315.394257,249.637405 315.353485,252.018570 
	C315.282104,256.182312 315.336304,260.348328 315.351166,264.513367 
	C315.364258,268.172394 316.842834,270.913513 320.797699,270.798126 
	C324.485077,270.690582 325.751587,267.979065 325.743500,264.549530 
	C325.733276,260.218292 325.795471,255.886887 325.791687,251.555573 
	C325.789642,249.214371 327.109558,248.316620 329.243896,248.220154 
	C331.169708,248.133118 332.722107,248.853760 332.718140,250.906372 
	C332.703766,258.321289 334.204346,265.885193 330.568817,273.318237 
z"/>
<path fill="#000000" opacity="1.000000" stroke="none" 
	d="
M382.601257,254.519012 
	C385.679962,262.033173 389.491943,268.851807 391.790680,276.593079 
	C388.117493,277.719940 385.361603,278.073669 383.012970,274.401886 
	C380.946350,271.171051 375.477112,271.351898 373.362885,274.640564 
	C371.391144,277.707581 369.136993,277.866760 366.224335,276.693329 
	C366.658752,272.905060 375.129303,252.921661 378.502655,247.778137 
	C381.257324,249.042786 381.199677,252.045288 382.601257,254.519012 
z"/>
<path fill="#000000" opacity="1.000000" stroke="none" 
	d="
M166.871857,196.568130 
	C169.615479,198.766098 167.938980,200.732788 166.888016,202.454025 
	C165.821976,204.199905 164.169098,203.163727 162.894379,202.520813 
	C159.172104,200.643524 156.488144,202.265488 154.221313,205.033310 
	C151.875107,207.898087 151.537155,211.070923 153.572205,214.255157 
	C155.725800,217.624847 158.830353,218.615082 162.650543,217.539368 
	C164.289001,217.078003 165.880676,215.608887 167.552811,217.727509 
	C169.969345,220.789337 169.182526,223.040237 165.082672,224.274353 
	C158.325851,226.308228 151.304367,224.107651 147.786560,218.853699 
	C144.371887,213.753723 144.681839,204.966446 148.450409,200.033478 
	C152.251541,195.057877 159.186859,193.663696 166.871857,196.568130 
z"/>
<path fill="#000000" opacity="1.000000" stroke="none" 
	d="
M91.225815,277.341980 
	C88.278000,277.193237 87.839630,275.500244 87.833641,273.504395 
	C87.812660,266.507812 87.850578,259.510712 87.767273,252.514969 
	C87.736053,249.892715 88.674416,248.415573 91.455765,248.335495 
	C94.505943,248.247726 95.005234,250.186310 95.000740,252.587448 
	C94.992630,256.918549 95.121834,261.256134 94.925262,265.578827 
	C94.753723,269.351044 96.038155,271.299286 100.064079,270.871277 
	C101.381958,270.731171 102.727112,270.847076 104.059792,270.846954 
	C106.273857,270.846771 108.039291,271.349548 108.094467,274.093231 
	C108.150009,276.854950 106.470528,277.394348 104.196960,277.376312 
	C100.032570,277.343292 95.867744,277.365753 91.225815,277.341980 
z"/>
<path fill="#000000" opacity="1.000000" stroke="none" 
	d="
M146.898941,277.314758 
	C143.577850,277.521576 142.706207,275.949738 142.729660,273.352783 
	C142.792542,266.392456 142.801834,259.431122 142.756638,252.470703 
	C142.740250,249.947968 143.504929,248.285019 146.333679,248.205688 
	C149.280029,248.123077 149.961563,249.959900 149.970673,252.392212 
	C149.996750,259.352722 150.047592,266.313416 150.015137,273.273682 
	C150.006592,275.108429 149.899063,277.053497 146.898941,277.314758 
z"/>
<path fill="#000000" opacity="1.000000" stroke="none" 
	d="
M210.862335,196.746231 
	C211.098206,204.968048 211.153061,212.787811 211.214478,220.607529 
	C211.233017,222.967651 210.359055,224.353821 207.721176,224.380371 
	C205.091080,224.406830 204.157120,223.049698 204.147308,220.688660 
	C204.117554,213.529587 203.934113,206.365799 204.137085,199.213135 
	C204.254684,195.068848 205.887527,194.491180 210.862335,196.746231 
z"/>
<path fill="#000000" opacity="1.000000" stroke="none" 
	d="
M195.475327,292.536102 
	C197.090118,294.159698 198.392365,295.632751 199.698792,297.110535 
	C202.363647,296.248749 202.493988,292.720123 205.585129,292.287598 
	C207.163788,295.746307 206.211624,299.271973 206.042679,303.271667 
	C201.798767,302.566284 196.880310,305.295593 194.061661,302.041473 
	C192.478806,300.214081 191.705322,295.269501 195.475327,292.536102 
z"/>
<path fill="#000000" opacity="1.000000" stroke="none" 
	d="
M292.759338,299.406219 
	C293.238678,292.324707 295.776764,290.620667 302.713745,292.540253 
	C303.195892,294.034698 300.747131,296.031921 303.596191,297.580566 
	C304.695038,298.177856 304.256683,301.317749 302.882843,302.543518 
	C300.843842,304.362823 298.193665,303.696472 295.837555,302.911652 
	C294.391144,302.429810 293.440826,301.185760 292.759338,299.406219 
z"/>
<path fill="#000000" opacity="1.000000" stroke="none" 
	d="
M343.142151,298.648560 
	C344.010315,292.143890 346.043030,290.855469 352.801636,292.301025 
	C353.403595,294.020935 351.299408,296.105774 353.598938,297.998688 
	C354.702454,298.907074 354.519073,301.757202 352.634003,302.743622 
	C350.426025,303.899017 347.887695,304.057556 345.567139,302.662964 
	C344.215637,301.850708 343.589966,300.504852 343.142151,298.648560 
z"/>
<path fill="#000000" opacity="1.000000" stroke="none" 
	d="
M286.179962,301.999268 
	C282.787262,304.447388 282.018158,299.857788 279.130341,299.893463 
	C277.594849,300.145508 279.077850,304.101837 276.199585,303.105927 
	C274.103943,302.380859 274.994873,300.263184 274.972321,298.722137 
	C274.939087,296.455231 274.635071,294.099701 275.816315,292.019348 
	C278.641357,291.518524 279.165039,294.832428 281.815063,294.914337 
	C283.267517,294.647339 282.304810,290.827454 285.015869,291.866730 
	C287.247650,292.722290 286.398132,294.949066 286.426636,296.675262 
	C286.453918,298.331848 286.321594,299.991028 286.179962,301.999268 
z"/>
<path fill="#000000" opacity="1.000000" stroke="none" 
	d="
M159.943909,302.264771 
	C159.726608,299.282776 159.666428,296.633209 159.681168,293.984100 
	C159.684677,293.355072 159.939148,292.727448 160.081390,292.084686 
	C163.004456,291.645416 163.943878,294.655579 166.349335,295.218719 
	C168.334564,295.122528 166.938080,292.462006 168.601776,291.939972 
	C171.455780,291.643158 172.155304,296.749756 170.016724,302.997925 
	C168.616730,303.629974 167.919006,302.475677 167.054749,301.789795 
	C166.287613,301.180969 165.563965,300.517303 164.860916,299.912109 
	C162.779541,300.177185 163.414825,304.864655 159.943909,302.264771 
z"/>
<path fill="#000000" opacity="1.000000" stroke="none" 
	d="
M178.158752,295.277100 
	C179.494797,288.985687 183.532578,292.761658 186.111603,291.851929 
	C188.019531,295.753815 183.134369,299.163574 187.023300,302.250641 
	C179.336487,304.928833 177.981018,303.869171 178.158752,295.277100 
z"/>
<path fill="#000000" opacity="1.000000" stroke="none" 
	d="
M364.916168,303.373535 
	C362.935059,303.240356 360.761627,303.666901 360.746765,301.303619 
	C360.727661,298.262970 359.482697,294.746735 361.796844,292.311737 
	C363.187469,290.848511 365.882111,291.491211 367.974884,291.930573 
	C369.436859,292.237518 369.308075,293.529449 369.282654,294.726013 
	C369.227356,297.328827 369.265533,299.933655 369.265533,302.259613 
	C367.975098,303.701202 366.577698,303.240936 364.916168,303.373535 
z"/>
<path fill="#000000" opacity="1.000000" stroke="none" 
	d="
M310.237915,297.407379 
	C310.370575,296.046051 310.485382,295.054108 310.551056,294.058929 
	C310.628754,292.881958 310.559814,291.573608 312.210663,291.497131 
	C313.992920,291.414612 314.315216,292.657623 314.507385,294.114441 
	C314.725647,295.768555 313.477753,297.776062 315.575745,299.110779 
	C318.417175,297.545227 315.239197,293.208466 319.273346,291.970734 
	C321.083069,295.389679 320.962311,298.900909 319.371063,302.186676 
	C318.514038,303.956299 316.290405,303.995819 314.422150,303.602142 
	C311.307098,302.945679 310.031921,300.859406 310.237915,297.407379 
z"/>
<path fill="#000000" opacity="1.000000" stroke="none" 
	d="
M258.506653,300.490723 
	C260.166229,297.458496 260.798859,294.254517 263.284241,291.686493 
	C266.020538,294.267670 266.668335,297.827606 268.486145,300.666016 
	C268.937347,301.370544 268.921661,302.286072 268.212006,302.948029 
	C267.370911,303.732605 265.823181,303.813812 265.481598,303.230560 
	C263.747009,300.268707 259.104523,306.337311 258.506653,300.490723 
z"/>
<path fill="#000000" opacity="1.000000" stroke="none" 
	d="
M132.378754,295.575470 
	C133.298615,292.879395 134.967422,291.751251 137.360825,291.729309 
	C138.782471,291.716278 140.630798,291.256836 141.064606,293.217224 
	C141.479080,295.090271 139.784988,295.138947 138.512711,295.412201 
	C137.265091,295.680145 136.347443,296.349609 136.437286,297.738708 
	C136.527313,299.130768 137.591202,299.641968 138.800507,299.849640 
	C139.957275,300.048248 141.132767,300.164886 141.482452,301.965088 
	C139.828445,304.301453 137.365753,304.051636 135.135910,303.042267 
	C132.145935,301.688965 131.503815,299.017487 132.378754,295.575470 
z"/>
<path fill="#000000" opacity="1.000000" stroke="none" 
	d="
M221.448364,297.542969 
	C222.138763,299.528076 223.742493,300.855286 223.096329,303.322876 
	C219.894257,303.330963 216.518372,301.048553 212.432938,304.593018 
	C213.279282,298.878510 215.200287,295.411377 217.933350,292.171600 
	C220.056335,293.477051 220.324615,295.580994 221.448364,297.542969 
z"/>
<path fill="#000000" opacity="1.000000" stroke="none" 
	d="
M336.946198,300.586060 
	C337.648651,302.531677 336.984253,304.051331 335.376526,303.233765 
	C332.680847,301.862976 330.144897,302.631958 327.505035,303.056976 
	C327.755341,298.574799 329.033234,295.690094 332.375397,292.111572 
	C334.680267,294.431427 335.197357,297.686798 336.946198,300.586060 
z"/>
<path fill="#000000" opacity="1.000000" stroke="none" 
	d="
M243.538651,326.306152 
	C244.380814,326.591461 244.898056,326.713257 245.275192,327.011932 
	C247.251892,328.577576 247.724030,330.481201 246.371109,332.692566 
	C245.226547,334.563416 243.439636,334.714355 241.552719,334.297424 
	C239.248642,333.788330 239.774017,331.836761 239.658981,330.260651 
	C239.477661,327.775848 240.064514,325.907440 243.538651,326.306152 
z"/>
<path fill="#000000" opacity="1.000000" stroke="none" 
	d="
M244.279709,292.654419 
	C245.935577,291.779388 247.198624,292.352051 247.069656,293.658783 
	C246.655975,297.850342 248.837067,300.162811 252.825470,301.550385 
	C250.369614,304.554474 247.598587,303.548218 245.303146,303.058319 
	C242.970551,302.560455 243.717636,300.113098 243.669281,298.411591 
	C243.618195,296.614044 243.878464,294.807648 244.279709,292.654419 
z"/>
<path fill="#000000" opacity="1.000000" stroke="none" 
	d="
M216.221954,333.094177 
	C214.398285,335.705780 212.093460,335.017120 210.580276,333.557068 
	C209.122177,332.150177 209.389481,329.682678 210.157700,327.870422 
	C211.153671,325.520874 213.339859,326.058289 215.592957,326.410950 
	C215.810440,328.616302 216.014664,330.687225 216.221954,333.094177 
z"/>
<path fill="#000000" opacity="1.000000" stroke="none" 
	d="
M273.298340,333.010193 
	C271.326416,335.101685 269.505005,334.927643 267.944946,333.153564 
	C266.731323,331.773407 266.709595,330.042847 267.728607,328.519073 
	C268.623932,327.180298 270.009949,326.398254 271.589355,327.216095 
	C273.851654,328.387573 274.408539,330.327179 273.298340,333.010193 
z"/>
<path fill="#000000" opacity="1.000000" stroke="none" 
	d="
M148.639130,297.564758 
	C148.722565,296.008942 148.740204,294.846069 148.906418,293.704865 
	C149.064453,292.619812 149.716003,291.868561 150.892334,291.908142 
	C152.190201,291.951721 152.420410,293.009399 152.546432,293.998474 
	C152.712997,295.305542 153.107788,296.718658 152.786835,297.921387 
	C152.291611,299.777100 153.602692,303.157227 150.579758,303.131592 
	C147.280121,303.103607 149.076462,299.824432 148.639130,297.564758 
z"/>
<path fill="#000000" opacity="1.000000" stroke="none" 
	d="
M263.572754,333.853210 
	C259.401306,336.213226 258.574707,333.590851 257.988861,330.528625 
	C257.538696,328.175629 258.897430,326.965729 260.840088,326.681580 
	C262.730530,326.405060 263.286163,328.043610 263.478699,329.612244 
	C263.639526,330.922546 263.665680,332.249420 263.572754,333.853210 
z"/>
<path fill="#000000" opacity="1.000000" stroke="none" 
	d="
M221.761688,334.360352 
	C219.455002,331.915802 220.236084,329.308472 221.376205,327.141663 
	C222.103821,325.758759 223.994141,326.440308 225.769806,327.290222 
	C224.281357,329.634094 229.047379,334.662384 221.761688,334.360352 
z"/>
<path fill="#000000" opacity="1.000000" stroke="none" 
	d="
M283.255066,333.456726 
	C279.179413,334.972504 276.678680,333.059967 277.308014,329.314117 
	C277.530670,327.988800 278.416138,327.311646 279.626129,327.053680 
	C281.124573,326.734222 282.410187,327.414642 282.853668,328.725433 
	C283.315399,330.090302 283.203339,331.649292 283.255066,333.456726 
z"/>
<path fill="#000000" opacity="1.000000" stroke="none" 
	d="
M291.155121,327.394073 
	C291.570343,328.253967 291.759033,328.872894 291.856049,329.505859 
	C292.147827,331.408752 292.957611,333.594757 290.066101,334.211884 
	C288.162994,334.618042 287.377045,333.557709 287.417358,331.723358 
	C287.469482,329.351959 286.665741,326.353088 291.155121,327.394073 
z"/>
<path fill="#000000" opacity="1.000000" stroke="none" 
	d="
M235.027634,328.019653 
	C234.509369,330.264191 234.014801,332.106537 233.386780,334.446045 
	C230.115555,332.421509 231.083878,329.451324 229.865692,327.251465 
	C231.964630,325.858734 233.622681,325.267609 235.027634,328.019653 
z"/>
<path fill="#000000" opacity="1.000000" stroke="none" 
	d="
M230.269104,298.510437 
	C231.597214,296.875610 232.798019,295.650269 234.621216,297.182098 
	C235.532608,297.947845 236.427567,298.869812 235.969482,300.162811 
	C235.509308,301.461731 234.477249,302.682648 233.094330,302.570648 
	C231.046707,302.404877 229.864487,301.065460 230.269104,298.510437 
z"/>
</svg>